{
  "accessors": [
    {
      "bufferView": 1,
      "componentType": 5126,
      "count": 240,
      "max": [
        1.1307499408721924,
        1,
        0.90416997671127319
      ],
      "min": [
        -1.052590012550354,
        -1,
        -0.86750000715255737
      ],
      "type": "VEC3"
    },
    {
      "bufferView": 1,
      "byteOffset": 2880,
      "componentType": 5126,
      "count": 240,
      "max": [
        0.93053042888641357,
        0.9653668999671936,
        0.94858932495117188
      ],
      "min": [
        -0.98519998788833618,
        -0.9653668999671936,
        -0.99963784217834473
      ],
      "type": "VEC3"
    },
    {
      "bufferView": 0,
      "componentType": 5125,
      "count": 240,
      "max": [
        239
      ],
      "min": [
        0
      ],
      "type": "SCALAR"
    },
    {
      "bufferView": 1,
      "byteOffset": 5760,
      "componentType": 5126,
      "count": 240,
      "max": [
        0.95105999708175659,
        1,
        0.90416997671127319
      ],
      "min": [
        -1.052590012550354,
        -1,
        -1.0233900547027588
      ],
      "type": "VEC3"
    },
    {
      "bufferView": 1,
      "byteOffset": 8640,
      "componentType": 5126,
      "count": 240,
      "max": [
        0.99744999408721924,
        0.9653668999671936,
        0.94858932495117188
      ],
      "min": [
        -0.99074143171310425,
        -0.9653668999671936,
        -0.96393740177154541
      ],
      "type": "VEC3"
    },
    {
      "bufferView": 0,
      "byteOffset": 960,
      "componentType": 5125,
      "count": 240,
      "max": [
        239
      ],
      "min": [
        0
      ],
      "type": "SCALAR"
    },
    {
      "bufferView": 1,
      "byteOffset": 11520,
      "componentType": 5126,
      "count": 240,
      "max": [
        0.95105999708175659,
        1,
        0.90416997671127319
      ],
      "min": [
        -1.052590012550354,
        -1,
        -1.0233900547027588
      ],
      "type": "VEC3"
    },
    {
      "bufferView": 1,
      "byteOffset": 14400,
      "componentType": 5126,
      "count": 240,
      "max": [
        0.99744999408721924,
        0.9653668999671936,
        0.94858932495117188
      ],
      "min": [
        -0.99074143171310425,
        -0.9653668999671936,
        -0.96393740177154541
      ],
      "type": "VEC3"
    },
    {
      "bufferView": 0,
      "byteOffset": 1920,
      "componentType": 5125,
      "count": 240,
      "max": [
        239
      ],
      "min": [
        0
      ],
      "type": "SCALAR"
    },
    {
      "bufferView": 1,
      "byteOffset": 17280,
      "componentType": 5126,
      "count": 240,
      "max": [
        0.95105999708175659,
        1,
        0.90416997671127319
      ],
      "min": [
        -1.052590012550354,
        -1,
        -1.0233900547027588
      ],
      "type": "VEC3"
    },
    {
      "bufferView": 1,
      "byteOffset": 20160,
      "componentType": 5126,
      "count": 240,
      "max": [
        0.99744999408721924,
        0.9653668999671936,
        0.94858932495117188
      ],
      "min": [
        -0.99074143171310425,
        -0.9653668999671936,
        -0.96393740177154541
      ],
      "type": "VEC3"
    },
    {
      "bufferView": 0,
      "byteOffset": 2880,
      "componentType": 5125,
      "count": 240,
      "max": [
        239
      ],
      "min": [
        0
      ],
      "type": "SCALAR"
    },
    {
      "bufferView": 1,
      "byteOffset": 23040,
      "componentType": 5126,
      "count": 240,
      "max": [
        0.95105999708175659,
        1,
        0.83990001678466797
      ],
      "min": [
        -1.0048199892044067,
        -0.85065001249313354,
        -0.87097001075744629
      ],
      "type": "VEC3"
    },
    {
      "bufferView": 1,
      "byteOffset": 25920,
      "componentType": 5126,
      "count": 240,
      "max": [
        0.93529075384140015,
        0.9653668999671936,
        0.99976819753646851
      ],
      "min": [
        -0.97923487424850464,
        -0.98065602779388428,
        -0.99931865930557251
      ],
      "type": "VEC3"
    },
    {
      "bufferView": 0,
      "byteOffset": 3840,
      "componentType": 5125,
      "count": 240,
      "max": [
        239
      ],
      "min": [
        0
      ],
      "type": "SCALAR"
    },
    {
      "bufferView": 1,
      "byteOffset": 28800,
      "componentType": 5126,
      "count": 240,
      "max": [
        0.95105999708175659,
        1,
        0.90416997671127319
      ],
      "min": [
        -1.052590012550354,
        -1,
        -1.0233900547027588
      ],
      "type": "VEC3"
    },
    {
      "bufferView": 1,
      "byteOffset": 31680,
      "componentType": 5126,
      "count": 240,
      "max": [
        0.99744999408721924,
        0.9653668999671936,
        0.94858932495117188
      ],
      "min": [
        -0.99074143171310425,
        -0.9653668999671936,
        -0.96393740177154541
      ],
      "type": "VEC3"
    },
    {
      "bufferView": 0,
      "byteOffset": 4800,
      "componentType": 5125,
      "count": 240,
      "max": [
        239
      ],
      "min": [
        0
      ],
      "type": "SCALAR"
    },
    {
      "bufferView": 1,
      "byteOffset": 34560,
      "componentType": 5126,
      "count": 240,
      "max": [
        0.95105999708175659,
        1,
        0.90416997671127319
      ],
      "min": [
        -1.052590012550354,
        -1,
        -1.0233900547027588
      ],
      "type": "VEC3"
    },
    {
      "bufferView": 1,
      "byteOffset": 37440,
      "componentType": 5126,
      "count": 240,
      "max": [
        0.99744999408721924,
        0.9653668999671936,
        0.94858932495117188
      ],
      "min": [
        -0.99074143171310425,
        -0.9653668999671936,
        -0.96393740177154541
      ],
      "type": "VEC3"
    },
    {
      "bufferView": 0,
      "byteOffset": 5760,
      "componentType": 5125,
      "count": 240,
      "max": [
        239
      ],
      "min": [
        0
      ],
      "type": "SCALAR"
    },
    {
      "bufferView": 1,
      "byteOffset": 40320,
      "componentType": 5126,
      "count": 240,
      "max": [
        0.95105999708175659,
        1,
        0.83990001678466797
      ],
      "min": [
        -1.0048199892044067,
        -0.85065001249313354,
        -0.87097001075744629
      ],
      "type": "VEC3"
    },
    {
      "bufferView": 1,
      "byteOffset": 43200,
      "componentType": 5126,
      "count": 240,
      "max": [
        0.93529075384140015,
        0.9653668999671936,
        0.99976819753646851
      ],
      "min": [
        -0.97923487424850464,
        -0.98065602779388428,
        -0.99931865930557251
      ],
      "type": "VEC3"
    },
    {
      "bufferView": 0,
      "byteOffset": 6720,
      "componentType": 5125,
      "count": 240,
      "max": [
        239
      ],
      "min": [
        0
      ],
      "type": "SCALAR"
    },
    {
      "bufferView": 1,
      "byteOffset": 46080,
      "componentType": 5126,
      "count": 160,
      "max": [
        1,
        1,
        1
      ],
      "min": [
        -1,
        -1,
        0.27026998996734619
      ],
      "type": "VEC3"
    },
    {
      "bufferView": 1,
      "byteOffset": 48000,
      "componentType": 5126,
      "count": 160,
      "max": [
        0.99518442153930664,
        0.99518442153930664,
        1
      ],
      "min": [
        -0.99518442153930664,
        -0.99518442153930664,
        0
      ],
      "type": "VEC3"
    },
    {
      "bufferView": 0,
      "byteOffset": 7680,
      "componentType": 5125,
      "count": 282,
      "max": [
        159
      ],
      "min": [
        0
      ],
      "type": "SCALAR"
    },
    {
      "bufferView": 1,
      "byteOffset": 49920,
      "componentType": 5126,
      "count": 160,
      "max": [
        1,
        1,
        0.27026998996734619
      ],
      "min": [
        -1,
        -1,
        -1
      ],
      "type": "VEC3"
    },
    {
      "bufferView": 1,
      "byteOffset": 51840,
      "componentType": 5126,
      "count": 160,
      "max": [
        0.99518442153930664,
        0.99518442153930664,
        0
      ],
      "min": [
        -0.99518442153930664,
        -0.99518442153930664,
        -1
      ],
      "type": "VEC3"
    },
    {
      "bufferView": 0,
      "byteOffset": 8808,
      "componentType": 5125,
      "count": 282,
      "max": [
        159
      ],
      "min": [
        0
      ],
      "type": "SCALAR"
    },
    {
      "bufferView": 1,
      "byteOffset": 53760,
      "componentType": 5126,
      "count": 240,
      "max": [
        0.95105999708175659,
        1,
        0.90416997671127319
      ],
      "min": [
        -1.052590012550354,
        -1,
        -1.0233900547027588
      ],
      "type": "VEC3"
    },
    {
      "bufferView": 1,
      "byteOffset": 56640,
      "componentType": 5126,
      "count": 240,
      "max": [
        0.99744999408721924,
        0.9653668999671936,
        0.94858932495117188
      ],
      "min": [
        -0.99074143171310425,
        -0.9653668999671936,
        -0.96393740177154541
      ],
      "type": "VEC3"
    },
    {
      "bufferView": 0,
      "byteOffset": 9936,
      "componentType": 5125,
      "count": 240,
      "max": [
        239
      ],
      "min": [
        0
      ],
      "type": "SCALAR"
    },
    {
      "bufferView": 1,
      "byteOffset": 59520,
      "componentType": 5126,
      "count": 240,
      "max": [
        0.95105999708175659,
        1,
        0.83990001678466797
      ],
      "min": [
        -1.0048199892044067,
        -0.85065001249313354,
        -0.87097001075744629
      ],
      "type": "VEC3"
    },
    {
      "bufferView": 1,
      "byteOffset": 62400,
      "componentType": 5126,
      "count": 240,
      "max": [
        0.93529075384140015,
        0.9653668999671936,
        0.99976819753646851
      ],
      "min": [
        -0.97923487424850464,
        -0.98065602779388428,
        -0.99921131134033203
      ],
      "type": "VEC3"
    },
    {
      "bufferView": 0,
      "byteOffset": 10896,
      "componentType": 5125,
      "count": 240,
      "max": [
        239
      ],
      "min": [
        0
      ],
      "type": "SCALAR"
    }
  ],
  "asset": {
    "extras": {
      "author": "Game Green (https://sketchfab.com/gamegreen)",
      "license": "CC-BY-4.0 (http://creativecommons.org/licenses/by/4.0/)",
      "source": "https://sketchfab.com/models/1f7e39b63dea47bcaf6f888f34b02a80",
      "title": "Cloud Low Poly #01"
    },
    "generator": "Sketchfab-3.29.4",
    "version": "2.0"
  },
  "bufferViews": [
    {
      "buffer": 0,
      "byteLength": 11856,
      "byteOffset": 0,
      "name": "floatBufferViews",
      "target": 34963
    },
    {
      "buffer": 0,
      "byteLength": 65280,
      "byteOffset": 11856,
      "byteStride": 12,
      "name": "floatBufferViews",
      "target": 34962
    }
  ],
  "buffers": [
    {
      "byteLength": 77136,
      "uri": "scene.bin"
    }
  ],
  "materials": [
    {
      "doubleSided": true,
      "emissiveFactor": [
        0,
        0,
        0
      ],
      "name": "Material.003",
      "pbrMetallicRoughness": {
        "baseColorFactor": [
          0.80000001190000003,
          0.80000001190000003,
          0.80000001190000003,
          1
        ],
        "metallicFactor": 0,
        "roughnessFactor": 0.59999999999999998
      }
    },
    {
      "doubleSided": true,
      "emissiveFactor": [
        0,
        0,
        0
      ],
      "name": "Grama",
      "pbrMetallicRoughness": {
        "baseColorFactor": [
          0.23691068048404634,
          0.43657961537412165,
          0.05040802434981935,
          1
        ],
        "metallicFactor": 0,
        "roughnessFactor": 0.59999999999999998
      }
    },
    {
      "doubleSided": true,
      "emissiveFactor": [
        0,
        0,
        0
      ],
      "name": "Terra",
      "pbrMetallicRoughness": {
        "baseColorFactor": [
          0.13461555440240636,
          0.057817483820035064,
          0.026483822233946849,
          1
        ],
        "metallicFactor": 0,
        "roughnessFactor": 0.59999999999999998
      }
    },
    {
      "doubleSided": true,
      "emissiveFactor": [
        0,
        0,
        0
      ],
      "name": "Material.005",
      "pbrMetallicRoughness": {
        "baseColorFactor": [
          0.80000001190000003,
          0.80000001190000003,
          0.80000001190000003,
          1
        ],
        "metallicFactor": 0,
        "roughnessFactor": 0.59999999999999998
      }
    },
    {
      "doubleSided": true,
      "emissiveFactor": [
        0,
        0,
        0
      ],
      "name": "Material.006",
      "pbrMetallicRoughness": {
        "baseColorFactor": [
          0.80000001190000003,
          0.80000001190000003,
          0.80000001190000003,
          1
        ],
        "metallicFactor": 0,
        "roughnessFactor": 0.59999999999999998
      }
    },
    {
      "doubleSided": true,
      "emissiveFactor": [
        0,
        0,
        0
      ],
      "name": "Material.007",
      "pbrMetallicRoughness": {
        "baseColorFactor": [
          0.80000001190000003,
          0.80000001190000003,
          0.80000001190000003,
          1
        ],
        "metallicFactor": 0,
        "roughnessFactor": 0.59999999999999998
      }
    }
  ],
  "meshes": [
    {
      "name": "Icosphere.009",
      "primitives": [
        {
          "attributes": {
            "NORMAL": 1,
            "POSITION": 0
          },
          "indices": 2,
          "material": 5,
          "mode": 4
        }
      ]
    },
    {
      "name": "Icosphere.008",
      "primitives": [
        {
          "attributes": {
            "NORMAL": 4,
            "POSITION": 3
          },
          "indices": 5,
          "material": 4,
          "mode": 4
        }
      ]
    },
    {
      "name": "Icosphere.007",
      "primitives": [
        {
          "attributes": {
            "NORMAL": 7,
            "POSITION": 6
          },
          "indices": 8,
          "material": 3,
          "mode": 4
        }
      ]
    },
    {
      "name": "Icosphere.006",
      "primitives": [
        {
          "attributes": {
            "NORMAL": 10,
            "POSITION": 9
          },
          "indices": 11,
          "material": 3,
          "mode": 4
        }
      ]
    },
    {
      "name": "Icosphere.005",
      "primitives": [
        {
          "attributes": {
            "NORMAL": 13,
            "POSITION": 12
          },
          "indices": 14,
          "material": 3,
          "mode": 4
        }
      ]
    },
    {
      "name": "Icosphere.004",
      "primitives": [
        {
          "attributes": {
            "NORMAL": 16,
            "POSITION": 15
          },
          "indices": 17,
          "material": 0,
          "mode": 4
        }
      ]
    },
    {
      "name": "Icosphere.003",
      "primitives": [
        {
          "attributes": {
            "NORMAL": 19,
            "POSITION": 18
          },
          "indices": 20,
          "material": 0,
          "mode": 4
        }
      ]
    },
    {
      "name": "Icosphere.002",
      "primitives": [
        {
          "attributes": {
            "NORMAL": 22,
            "POSITION": 21
          },
          "indices": 23,
          "material": 0,
          "mode": 4
        }
      ]
    },
    {
      "name": "Cylinder.005",
      "primitives": [
        {
          "attributes": {
            "NORMAL": 25,
            "POSITION": 24
          },
          "indices": 26,
          "material": 1,
          "mode": 4
        }
      ]
    },
    {
      "name": "Cylinder.005",
      "primitives": [
        {
          "attributes": {
            "NORMAL": 28,
            "POSITION": 27
          },
          "indices": 29,
          "material": 2,
          "mode": 4
        }
      ]
    },
    {
      "name": "Icosphere.001",
      "primitives": [
        {
          "attributes": {
            "NORMAL": 31,
            "POSITION": 30
          },
          "indices": 32,
          "material": 0,
          "mode": 4
        }
      ]
    },
    {
      "name": "Icosphere",
      "primitives": [
        {
          "attributes": {
            "NORMAL": 34,
            "POSITION": 33
          },
          "indices": 35,
          "material": 0,
          "mode": 4
        }
      ]
    }
  ],
  "nodes": [
    {
      "children": [
        1
      ],
      "name": "RootNode (gltf orientation matrix)",
      "rotation": [
        -0.70710678118654746,
        -0,
        -0,
        0.70710678118654757
      ]
    },
    {
      "children": [
        2
      ],
      "name": "RootNode (model correction matrix)"
    },
    {
      "children": [
        3,
        5,
        7,
        9,
        11,
        13,
        15,
        17,
        19,
        22,
        24
      ],
      "name": "Root"
    },
    {
      "children": [
        4
      ],
      "matrix": [
        0.46612000000000003,
        -0.26114999999999999,
        -0,
        0,
        0.26114999999999999,
        0.46612000000000003,
        -0,
        0,
        0,
        -0,
        0.5343,
        0,
        1.53433,
        -0.50963000000000003,
        2.7616100000000001,
        1
      ],
      "name": "Icosphere.009"
    },
    {
      "mesh": 0,
      "name": "Icosphere.009"
    },
    {
      "children": [
        6
      ],
      "matrix": [
        0.24247000000000002,
        -0.13585,
        -0,
        0,
        0.13585,
        0.24247000000000002,
        -0,
        0,
        0,
        -0,
        0.27794000000000002,
        0,
        2.79949,
        -0.50963000000000003,
        2.4274399999999998,
        1
      ],
      "name": "Icosphere.008"
    },
    {
      "mesh": 1,
      "name": "Icosphere.008"
    },
    {
      "children": [
        8
      ],
      "matrix": [
        0.46612000000000003,
        -0.26114999999999999,
        -0,
        0,
        0.26114999999999999,
        0.46612000000000003,
        -0,
        0,
        0,
        -0,
        0.5343,
        0,
        4.3285399999999994,
        -0.50963000000000003,
        2.2616399999999999,
        1
      ],
      "name": "Icosphere.007"
    },
    {
      "mesh": 2,
      "name": "Icosphere.007"
    },
    {
      "children": [
        10
      ],
      "matrix": [
        0.3995200000000001,
        -0.22384000000000004,
        -0,
        0,
        0.22384000000000004,
        0.3995200000000001,
        -0,
        0,
        0,
        -0,
        0.45795000000000002,
        0,
        3.2038600000000002,
        -0.50963000000000003,
        2.2178200000000001,
        1
      ],
      "name": "Icosphere.006"
    },
    {
      "mesh": 3,
      "name": "Icosphere.006"
    },
    {
      "children": [
        12
      ],
      "matrix": [
        0.73247000000000007,
        0,
        0,
        0,
        0,
        0.73247000000000007,
        0,
        0,
        0,
        0,
        0.73247000000000007,
        0,
        3.9328599999999994,
        -0.53017000000000003,
        2.6369899999999999,
        1
      ],
      "name": "Icosphere.005"
    },
    {
      "mesh": 4,
      "name": "Icosphere.005"
    },
    {
      "children": [
        14
      ],
      "matrix": [
        0.46612000000000003,
        -0.26114999999999999,
        -0,
        0,
        0.26114999999999999,
        0.46612000000000003,
        -0,
        0,
        0,
        -0,
        0.5343,
        0,
        2.3342899999999998,
        -0.50963000000000003,
        1.2238799999999999,
        1
      ],
      "name": "Icosphere.004"
    },
    {
      "mesh": 5,
      "name": "Icosphere.004"
    },
    {
      "children": [
        16
      ],
      "matrix": [
        0.3995200000000001,
        -0.22384000000000004,
        -0,
        0,
        0.22384000000000004,
        0.3995200000000001,
        -0,
        0,
        0,
        -0,
        0.45795000000000002,
        0,
        0.93108000000000002,
        -0.50963000000000003,
        1.26227,
        1
      ],
      "name": "Icosphere.003"
    },
    {
      "mesh": 6,
      "name": "Icosphere.003"
    },
    {
      "children": [
        18
      ],
      "matrix": [
        0.73247000000000007,
        0,
        0,
        0,
        0,
        0.73247000000000007,
        0,
        0,
        0,
        0,
        0.73247000000000007,
        0,
        1.6600800000000002,
        -0.53017000000000003,
        1.3265199999999999,
        1
      ],
      "name": "Icosphere.002"
    },
    {
      "mesh": 7,
      "name": "Icosphere.002"
    },
    {
      "children": [
        20,
        21
      ],
      "matrix": [
        1,
        0,
        0,
        0,
        0,
        1,
        0,
        0,
        0,
        0,
        0.15000000000000002,
        0,
        1.6656599999999999,
        -0.85991000000000006,
        0,
        1
      ],
      "name": "Cylinder.005"
    },
    {
      "mesh": 8,
      "name": "Cylinder.005"
    },
    {
      "mesh": 9,
      "name": "Cylinder.005"
    },
    {
      "children": [
        23
      ],
      "matrix": [
        0.3995200000000001,
        -0.22384000000000004,
        -0,
        0,
        0.22384000000000004,
        0.3995200000000001,
        -0,
        0,
        0,
        -0,
        0.45795000000000002,
        0,
        -0.92310999999999999,
        -0.50963000000000003,
        2.5887600000000002,
        1
      ],
      "name": "Icosphere.001"
    },
    {
      "mesh": 10,
      "name": "Icosphere.001"
    },
    {
      "children": [
        25
      ],
      "matrix": [
        0.73247000000000007,
        0,
        0,
        0,
        0,
        0.73247000000000007,
        0,
        0,
        0,
        0,
        0.73247000000000007,
        0,
        -0.19411000000000003,
        -0.53017000000000003,
        2.6530200000000002,
        1
      ],
      "name": "Icosphere"
    },
    {
      "mesh": 11,
      "name": "Icosphere"
    }
  ],
  "scene": 0,
  "scenes": [
    {
      "name": "OSG_Scene",
      "nodes": [
        0
      ]
    }
  ]
}

